<svg width="112" height="38" xmlns="http://www.w3.org/2000/svg"><g fill="#4F507C" opacity=".832"><path d="M101.513 23.765h-3.197v-3.473h3.197v-6.351h4.581v6.351h4.91v3.473h-4.91v7.046c0 1.434.291 2.365.873 2.795.582.43 1.774.362 3.576.362h.461v3.751s-2.462.009-4.186.005c-1.724-.005-3.054-.474-3.955-1.422-.9-.948-1.351-2.282-1.351-4.002v-8.534m-8.231 5.327c0 .928.032 2.556-1.053 3.843-1.151 1.287-2.513 1.44-3.927 1.44h-.006c-1.414 0-2.777-.153-3.927-1.44-1.085-1.286-1.053-2.914-1.053-3.843 0-.928-.058-2.823 1.028-4.076 1.085-1.254 2.703-1.243 3.952-1.243h.006c1.25 0 2.868-.011 3.953 1.243 1.085 1.253 1.027 3.149 1.027 4.076zm2.055-7.127c-1.939-1.781-4.931-1.848-7.035-1.848h-.006c-2.105 0-5.096.067-7.035 1.848-2.038 1.848-2.236 5.212-2.236 7.16 0 1.781.164 5.08 2.236 6.994 1.939 1.749 4.93 1.881 7.035 1.881h.006c2.104 0 5.096-.131 7.035-1.881 2.072-1.914 2.236-5.213 2.236-6.994 0-1.948-.197-5.313-2.236-7.16zm-23.451 3.088c-.263.397-.395 1.168-.395 2.315v10.386h-4.482v-10.783c0-2.426.604-4.157 1.812-5.193 1.12-.97 2.912-1.455 5.372-1.455 2.461 0 4.054.09 4.054.09v3.776s-2.426-.062-3.724-.062-2.22.308-2.637.926zm-12.289 0c-.264.397-.395 1.168-.395 2.315v10.386h-4.482v-10.783c0-2.426.604-4.157 1.813-5.193 1.119-.97 2.911-1.455 5.371-1.455 2.461 0 4.054.09 4.054.09v3.776s-2.426-.062-3.724-.062-2.22.308-2.637.926zm-32.004 8.979h4.812v3.737h-6.164c-3.01 0-5.289-.765-6.838-2.299-1.548-1.532-2.323-3.655-2.323-6.367 0-2.403.516-4.311 1.548-5.722 1.494-2.029 4.032-3.043 7.613-3.043h6.164v3.804h-4.812c-1.912 0-3.252.254-4.021.761-1.099.728-1.648 2.128-1.648 4.201 0 1.5.297 2.613.89 3.34.878 1.059 2.471 1.588 4.779 1.588zm14.188.265h5.734v-3.639h-5.405c-.834 0-1.45.089-1.845.265-.616.265-.923.783-.923 1.555 0 .728.192 1.213.576 1.455.384.243 1.005.364 1.862.364zm1.548-10.353h-7.679v-3.606h9.393c4.768 0 7.151 2.173 7.151 6.516v10.915h-12.293c-1.67 0-2.989-.463-3.955-1.389-.968-.926-1.451-2.183-1.451-3.771 0-2.117.681-3.594 2.044-4.432 1.077-.661 2.714-.992 4.911-.992h6.064c0-1.235-.297-2.084-.889-2.547-.593-.463-1.692-.695-3.296-.695zm-33.121 2.409l-8.047-3.26-2.16 3.46 8.758 2.485-8.749 2.316 2.161 3.461 8.001-3.073-5.034 6.006h4.518l6.034-8.695-6.026-8.687h-4.515l5.059 5.987"/><path d="M39.538 4.788c.936-.312 1.456-.897 1.456-1.768 0-1.235-.754-2.145-2.951-2.145h-3.107v8.125h3.159c2.353 0 3.159-.988 3.159-2.327 0-.962-.65-1.651-1.716-1.885zm-.13-1.56c0 .702-.533 1.131-1.547 1.131h-1.365v-2.21h1.495c.923 0 1.417.39 1.417 1.079zm.247 3.38c0 .741-.52 1.118-1.586 1.118h-1.573v-2.21h1.456c1.001 0 1.703.286 1.703 1.092zm9.724-.832v-4.901h-1.573v4.901c0 1.404-.637 2.028-1.768 2.028-1.261 0-1.846-.754-1.846-2.093v-4.836h-1.586v5.044c0 2.119 1.3 3.276 3.38 3.276 2.158 0 3.393-1.209 3.393-3.419zm3.432 3.224v-8.125h-1.573v8.125h1.573zm7.15 0v-1.391h-3.666v-6.734h-1.586v8.125h5.252zm6.396-6.734v-1.391h-7.007v1.391h2.717v6.734h1.573v-6.734h2.717zm8.307-1.391h-1.924l-2.964 8.125h1.599l.663-1.924h3.276l.676 1.924h1.599l-2.925-8.125zm.247 4.888h-2.457l1.235-3.523 1.222 3.523zm9.256-3.497v-1.391h-7.007v1.391h2.717v6.734h1.573v-6.734h2.717z"/></g></svg>