<svg width="114" height="32" xmlns="http://www.w3.org/2000/svg"><path d="M758.582 69.6c-11.485-7.665-12.836-25.597-32.467-25.597-8.635 0-10.694 8.432-16.063 13.456-1.319 1.234-6.046-.64-8.105 1.4-1.034 1.024-.477 3.029-1.374 3.925-2.38 2.376-24.505 3.531-28.194 4.625-4.042 1.199-6.978 3.251-11.088 3.831-.513.072-5.333.158-5.212.278 2.934 2.929 11.943.481 17.553 1.281 39.207 1.597 52.552 2.644 78.783 2.644 2.297 0 16.964 1.386 16.964-.559 0-1.284-10.797-5.284-10.797-5.284z" transform="translate(-656 -44)" fill="#EADBBA" opacity=".437"/></svg>