<svg width="47" height="36" xmlns="http://www.w3.org/2000/svg"><path d="M59.956 54.15s0 2.25-2.236 2.25h-13.437c-2.241 0-2.241-2.25-2.241-2.25v-4.5h3.136v3.6h11.637v-3.6h3.141v4.5zm11.2-12.15l-1.327-1.332v3.582h-37.66v-3.582l-1.327 1.332c-1.323 1.327-2.272 1.687-1.741 4.5.531 2.803 3.1 18.166 3.483 20.25.418 2.277 2.74 2.25 2.74 2.25h31.356s2.317.027 2.736-2.25c.382-2.083 2.952-17.446 3.483-20.25.535-2.812-.414-3.172-1.741-4.5zm-11.196-9h-17.919s-2.241 0-2.241 2.25h22.396c0-2.25-2.236-2.25-2.236-2.25zm6.718 6.75c0-2.25-2.241-2.25-2.241-2.25h-26.878s-2.236 0-2.236 2.25v2.25h31.356v-2.25z" transform="translate(-203 -81) translate(175 48)" fill="#5C789D"/></svg>
