<svg width="34" height="45" xmlns="https://www.w3.org/2000/svg"><path d="M63.625 41.136c-2.031 0-3.678-1.661-3.678-3.707 0-2.052 1.647-3.713 3.678-3.713 2.031 0 3.677 1.661 3.677 3.713 0 2.046-1.646 3.707-3.677 3.707zm-21.25 32.143c-2.031 0-3.678-1.661-3.678-3.707 0-2.052 1.647-3.713 3.678-3.713 2.031 0 3.677 1.661 3.677 3.713 0 2.046-1.646 3.707-3.677 3.707zm-3.678-35.85c0-2.052 1.647-3.713 3.678-3.713 2.031 0 3.677 1.661 3.677 3.713 0 2.046-1.646 3.707-3.677 3.707s-3.678-1.661-3.678-3.707zm31.303 0c0-3.552-2.855-6.429-6.375-6.429-3.521 0-6.375 2.877-6.375 6.429 0 2.604 1.541 4.843 3.752 5.855-.604 5.212-3.942 6.268-8.754 7.784-2.335.739-5.053 1.596-7.349 3.257v-10.993c2.265-.991 3.852-3.257 3.852-5.904 0-3.552-2.855-6.429-6.375-6.429-3.521 0-6.375 2.877-6.375 6.429 0 2.646 1.586 4.912 3.852 5.904v20.336c-2.265.986-3.852 3.257-3.852 5.904 0 3.546 2.854 6.429 6.375 6.429 3.52 0 6.375-2.882 6.375-6.429 0-2.609-1.541-4.848-3.752-5.855.604-5.218 3.942-6.273 8.755-7.789 4.898-1.543 11.489-3.621 12.31-12.563 2.311-.964 3.938-3.257 3.938-5.936z" transform="translate(-211 -350) translate(175 319)" fill="#5A638A"/></svg>
