<svg width="1214" height="1214" xmlns="https://www.w3.org/2000/svg"><path d="M611.256 610.028l.975.818 576.37 176.173-40.109 99.273-529.695-269.936 455.073 381.801-75.709 75.709-387.194-461.501-2.729-1.391-.41.805.157 1.797 282.935 532.041-98.558 41.835-183.623-565.26 51.795 591.57h-107.069l52.533-600.009-1.006-3.096-.726.236-1.184 1.411-176.16 576.327-99.273-40.109 269.901-529.625-381.714 454.969-75.709-75.709 461.441-387.143 1.391-2.729-1.065-.543-1.306.114-532.177 283.008-41.835-98.558 565.515-183.706-591.813 51.816v-107.069l600.148 52.546 2.729-.887-.413-1.271-.975-.818-576.37-176.173 40.109-99.273 529.695 269.936-455.073-381.801 75.709-75.709 387.194 461.501 2.729 1.391.41-.805-.157-1.797-282.935-532.041 98.558-41.835 183.623 565.26-51.795-591.57h107.069l-52.533 600.009 1.006 3.096.726-.236 1.184-1.411 176.16-576.327 99.273 40.109-269.901 529.625 381.714-454.969 75.709 75.709-461.441 387.143-1.391 2.729 1.065.543 1.306-.114 532.177-283.008 41.835 98.558-565.515 183.706 591.813-51.816v107.069l-600.148-52.546-2.729.887.413 1.271zm-.014-.012l-1.193-1.001.563-.183.63 1.184zm-3.463-6.512l-.086.028.014-.163.072.135zm1.375.055l.39-.465-.462.245.071.22zm-1.156.357l-.011.006.02.01-.009-.016zm.938 1.765l-.822.689 1.135-.099-.314-.59zm1.021 1.921l-.099.194.157-.084-.059-.11zm-7.2-3.855l.63 1.184.563-.183-1.193-1.001zm2.341 1.964l-.176.575.962.084-.786-.66zm1.381-.203l-.066-.749-.389.207.455.542zm5.485.526l-1.264.111.219-.43 1.045.319zm-3.889-1.189l-.556.663.071-.811.485.148zm-1.811-1.8l-.078-.892-.225.738.304.155zm-.669 1.042l-.043.141.245-.08-.202-.062zm-3.56 3.643l1.045.319.219-.43-1.264.111zm2.715-.238l.314.59.822-.689-1.135.099zm-.609-1.525l-.099.194-.059-.11.157-.084zm.314 4.702l.462-.245-.071-.22-.39.465zm1.469-1.751l.485.148.071-.811-.556.663zm1.889 2.692l.225-.738-.304-.155.078.892zm-1.506-1.38l-.086.028.072.135.014-.163zm1.278-1.226l.389-.207-.455-.542.066.749zm-1.592.826l.02.01-.011.006-.009-.016zm2.908-1.778l.176-.575-.962-.084.786.66zm-.699 1.563l.245-.08-.043.141-.202-.062z" fill="#fff" opacity=".07"/></svg>