<svg width="833" height="307" xmlns="https://www.w3.org/2000/svg"><path d="M6.367 2.063c3.814-.789 10.824-3.149 14.613-1.285 7.532 3.704 12.34 7.465 15.551 15.359.712 1.751-1.398 4.819.293 5.664 3.074 1.537 8.131-2.553 12.832.934 1.775 1.316 5.06 8.437 6.328 9.051 3.06 1.481 8.373-.921 11.824-.465 3.609.477 8.894 3.105 10.406 6.129.268.536 12.932.738 15.609 3.387 4.793 4.74 3.994 23.141 8.633 25.461 9.061 4.531 3.717-10.049 22.352 8.586 1.653 1.653 13.515-13.781 25.777-13.781 21.946 0 12.499 3.374 19.809 10.684.373.373 13.342-3.563 17.027-.992 4.514 3.149 3.081 9.019 6.211 12.148 2.676 2.676 15.129-.017 20.16 3.617 7.395 5.342 12.549 42.634 12.773 42.746 1.277.639 4.289-3.287 5.5-4.027 3.223-1.971 9.24-1.461 12.828-1.461 3.445 0 14.119 6.979 14.191 6.949 7.413-3.017 12.873-14.111 22.293-11.445 3.969 1.123 2.71 5.448 5.379 8.117.421.421 5.507-.684 6.445-.762 2.631-.217 3.55 1.613 5.262 3.211.483.451 7.538-3.251 9.461-2.742 4.093 1.082 5.186 5.023 8.102 6.48 2.297 1.148 8.05-3.003 11.293-1.867 6.085 2.131 6.361 19.513 11.531 17.809 3.94-1.299 6.593-6.094 10.582-7.531 2.587-.932 16.216-.942 16.676-1.402 4.482-4.482 9.728-8.115 16.613-10.57 1.479-.527 13.466-.427 13.66-.816 5.738-11.477-.94-22.591 14.781-28.438 9.002-3.348 30.927-.445 36.422 7.414 6.887 9.85 1.78 15.919 11.293 9.52 10.435-7.019 18.926.612 23-1.402 6.222-3.077 9.056-7.709 16.5-7.414 5.402.214 7.5 4.621 11.586 6.598 1.752.848 7.615-1.521 11.117 1.285 1.251 1.003 2.465 2.144 3.605 3.27 6.795 6.701 6.648 22.143 16.023 22.832 13.854 1.019 7.828 19.548 18.273 10.219 12.489-11.154 20.084 5.193 25.246-5.84 9.641-20.606 27.123-12.318 30.629-15.824 3.128-3.128-2.33-17.366 12.77-26.102 3.198-1.85 8.032-5.707 10.645-3.094.971.971 3.074 4.115 3.074 2.742 0-4.946 15.871-17.47 20.578-18.625 3.411-.837 18.947.456 20.34-.938 7.627-7.627-12.465-26.977 15.965-34.219 2.149-.547 13.997 2.234 14.07 2.16 1.152-1.152 12.088-2.363 15.258-.348 8.999 5.721-.59 14.867 9.934 13.371 3.423-.487 6.426 2.148 7.922 5.141.348.695 10.046-4.034 11.293-4.324 2.838-.661 12.038 3.164 12.297 3.039 2.755-1.333 4.47-14.066 7.273-17.227.903-1.018 20.88-7.425 22.234-6.832 6.947 3.04 6.981-2.97 14.367-5.898 2.86-1.134 7.788 3.862 9.164 1.109 1.991-3.983.841-11.298 4.434-14.891.237-.237 6.523-3.797 6.523-3.797l-1 284.266h-832v-300l6.367-4.937z" fill="#E3B67F" opacity=".28"/></svg>