<svg width="834" height="219" xmlns="https://www.w3.org/2000/svg"><path d="M.535 4.449c23.431-13.815 22.981 17.227 26.367 20.613.655.655 4.657-1.128 6.031-.934 3.067.434 3.404 4.911 5.145 5.781 4.562 2.281 10.579-3.965 15.844.934 5.079 4.726 8.265 19.437 13.836 22.133 5.943 2.876 14.318-8.391 21.227-5.664 3.95 1.559 3.603 11.631 4.316 14.305.184.69 5.82 2.97 6.918 5.492.695 1.595-.422 11.264-.176 11.387 2.073 1.036 5.734-.125 8.16.816 8.396 3.257 8.185 13.459 12.355 20.145 6.488 10.402 2.664 1.17 10.703 7.707 1.666 1.354 1.773 8.338 1.773 6.191 0-1.382 2.959.951 4.141.234 12.216-7.41 14.609 1.411 24.004 5.957 2.979 1.441 9.817-4.545 16.086 1.227 4.028 3.709 3.246 10.868 3.605 10.508 1.133-1.133 10.648 4.78 11.707 5.957 2.762 3.071 13.701 20.679 16.023 21.84.981.49-.064-3.986.711-3.211 6.767 6.767 16.446 4.107 24.125 8.641 8.81 5.201 23.139 14.505 34.113 12.324 13.084-2.6 8.024-13.594 17.859-18.512 2.785-1.393 11.358-.803 12.949-2.395 9.491-9.491-8.644-7.626 22.289-15.359.068-.017 6.502-11.784 9.047-13.488 2.983-1.998 7.967.471 10.586-1.984 4.327-4.056 6.1-10.141 12.535-9.344 2.071.257 12.26 4.857 12.473 5.137.111.147 1.141 1.845 1.363 1.637 3.981-3.732 9.676-5.7 15.313-6.246 3.473-.337 7.167-.329 10.582.348.648.128 4.645 1.784 4.852 1.578 6.416-6.416 12.266-13.818 22.055-15.594 4.765-.864 12.053.089 16.141 2.98.677.479 1.243-2.453.414-2.453-.279 0 3.004 5.179 3.371 5.547.662.662 9.175-1.097 12.004.758 1.95 1.278 4.083 6.508 5.082 7.008 1.829.915 6.723-1.281 9.758.703 3.495 2.285 5.933 5.762 7.391 9.633 3.433 9.116 5.796 3.07 16.496 5.547 8.291 1.92 6.094 7 13.188.469 8.677-7.989 23.64-2.919 29.738-7.766 8.228-6.539 14.842-15.165 25.781-17.695 3.898-.902 9.18-1.059 12.832.586.338.152 4.021 2.916 4.137 2.801 10.894-10.894 23.183-22.128 36.07-13.723 2.723 1.776.866 4.694 2.363 6.191.288.288 9.946-4.284 17.563 9.691 5.077 9.317 4.506 6.34 14.25 1.227 12.862-6.75 12.629 2.085 17.324-8.699 2.578-5.921 6.249-11.31 10.762-15.941 1.679-1.723 3.351-2.959 5.852-2.629 1.174.155 2.783 2.344 3.313 1.285 1.799-3.599 3.981-7.11 8.633-9.402 11.053-5.447 11.32 7.73 16.613 13.023.169.169 5.079-1.632 5.559-1.75 2.898-.71 6.637.493 9.281 1.633 4.755 2.049 5.146 10.901 7.867 12.262 2.149 1.075 46.251 4.718 46.355 4.613 3.764-3.764 4.078-7.882 4.078-10.219 0-1.34-1.989-3.969-.648-3.969.02 0-.028-4.845 0-5.316.328-5.548 2.863-11.078 5.203-16 1.807-3.801 7.05-8.348 11.117-8.348.338 0-2.679-7.341-2.309-13.605.382-6.471 11.228-10.653 14.016-16.117 11.019-21.604 10.962-10.401 15.371-15.125 1.725-1.848 8.633-7.809 8.633-4.906v204.098h-832.516v-214.551z" fill="#40416B"/></svg>