<svg width="833" height="96" xmlns="http://www.w3.org/2000/svg"><path d="M517 620c3.906-15.062 26.396-7.12 34.438-11.141 2.422-1.211 3.279-6.592 5.383-8.641 2.997-2.918 20.132-3.834 23.648-2.105 4.255 2.092 4.987 10.264 9.875 9.227 3.158-.67 7.198-2.827 10.523-1.926 1.522.413 3.992 4.577 4.438 4.027 4.653-5.738 14.244-14.887 22.469-13.723 2.012.285 5.078 3.917 6.383 5.141.539.505 14.232-3.212 16.086-3.621 2.742-.605 6.348 4.956 7.742 4.438 5.665-2.107 10.048-7.321 16.203-9.285.888-.283 11.51-1.648 11.707-2.043 3.612-7.223 5.028-13.92 15.137-14.832 1.92-.173 23.325 5.131 24.773 6.367 1.9 1.621 5.079 3.324 6.387 5.488.322.533 1.463 3.562 2.129 3.152 22.197-13.646 12.945-4.277 21.938-7.242 2.409-.794 5.221-7.391 7.625-9.168 3.993-2.952 25.111-3.671 29.508-2.16 2.58.886 3.165 3.516 4.789 5.141.061.061 3.869-7.459 8.453-10.805 1.849-1.35 7.574-1.918 8.457-2.801 1.812-1.812.339-11.394 2.66-14.832 7.497-11.105 13.823-7.895 15.25 2.344v69l-304 1-12-1zm-516.563-90.949c9.104-1.163 23.197-9.043 29.672 2.102.723 1.244.345 4.649 1.066 5.371 5.335 5.335 13.953-4.998 13.953 16.758 0 2.603 5.096-1.108 7.566-1.926 6.743-2.231 13.58-2.746 20.695-2.746 4.817 0 10.385 5.22 12.418 9.285.319.639-.148 6.375.355 6.543 3.319 1.106 9.301 2.831 11.41 5.84 1.885 2.689.349 9.255 2.188 11.094 1.43 1.43 10.965-1.4 12.535-1.578 5.589-.633 12.379 5.537 14.074 5.258 8.791-1.449 17.921-17.694 28.973-12.73 11.255 5.055 4.563 10.794 10.879 17.109.706.706 8.732-2.228 10.879-1.754 6.372 1.406 8.163 7.311 12.18 11.328 1.037 1.037 8.771-1.002 10.703-.523 2.34.58 3.084 3.661 5.383 2.859 2.187-.763 21.704-1.236 23.648-.816 4.458.961 38.285 12.953 41.625 16.293.882.882 7.431 2.376 7.359 3.621h-278l.438-91.387zm315.563 90.949c3.373-8.509 32.421-8.312 33.781-9.672 4.182-4.182 6.685-9.668 13.305-10.98 2.363-.468 10.846 2.823 11.293 2.57 5.93-3.357 6.83-5.583 14.484-5.898 4.723-.195 8.528 5.03 9.992 4.789 6.707-1.106 10.573-7.073 18.273-5.547 6.761 1.34 15.829 12.522 20.691 11.738 5.841-.941 5.059-.007 7.984 2.918.902.902 5.249-1.495 6.207-1.809 3.585-1.173 8.545-.643 12.242-.469 4.336.205 20.557 9.023 16.746 12.359h-165z" transform="translate(0 -525)" fill="#2D2E50"/></svg>