<svg width="833" height="257" xmlns="http://www.w3.org/2000/svg"><path d="M70.102 283.824c1.618 1.618 8.364 1.773 10.879 3.617 3.477 2.55 2.529 9.013 4.613 11.098 2.323 2.323 18.66-2.5 22.348-2.043 3.359.416 7.406 7.824 8.281 7.824.869 0 2.623-2.298 4.965.641 4.813 6.039 9.539 9.605 13.539 21.605.188.565 12.335-.361 13.484-.234 11.607 1.28 15.568 11.15 22.289 17.871 3.049 3.049 12.836-.57 16.969 3.563 5.333 5.333 2.582 16.926 6.27 20.613 4.857 4.857 14.782 2.167 19.984 14.305 1.479 3.452-1.214 11.853 1.184 14.25 7.7 7.7 25.89-7.288 36.539-3.738 6.106 2.035 4.107 6.642 7.391 9.926.423.423 4.579-.545 5.559-.406 8.851 1.253.088 6.615 13.246-1.988 11.321-7.402 23.892 2.606 30.863 9.578.584.584 4.324-2.569 5.5-2.863 7.086-1.772 11.155 2.729 15.492 7.066.382.382 17.437-4.844 20.043-4.844 2.3 0 12.625 3.872 12.949 3.734 5.823-2.472 6.731-12.261 13.953-14.305 10.515-2.976 18.864 5.619 28.027 3.328 3.318-.829 5.214-5.933 8.633-7.301 2.358-.943 8.32-1.195 9.578-2.453 2.898-2.898 8.181 4.102 9.461 3.68 8.069-2.66 9.268-11.831 20.223-12.555 6.361-.42 9.721 1.345 14.547 3.68 3.057 1.479 14.122-2.043 18.148-2.043 3.474 0 4.703 3.173 8.16 2.684 2.471-.35 6.617-3.207 9.699-2.16 3.082 1.047 27.181 12.063 29.328 11.797 3.769-.467 6.43-6.035 10.285-7.184 3.002-.895 9.047.703 9.047.703s1.19-3.388 1.539-3.563c5.113-2.556 16.599 9.281 17.973 13.313.996 2.922 8.366-1.26 10.883-1.633 4.817-.713 15.804 5.189 17.855 4.379 8.836-3.488 7.483-16.668 18.625-19.156 7.647-1.708 12.212.736 16.91 5.434 1.3 1.3 17.486 1.515 21.82 2.742 3.281.929 5.097 9.361 7.508 6.949 7.525-7.525 6.094-16.493 17.738-21.723 3.672-1.649 8.688-1.574 12.652-1.574.932 0 2.781 1.221 2.781.289 0-10.6.792-20.366 11.113-25.398 4.718-2.3 11.317-.019 14.605 3.27 1.532 1.532 2.821-3.675 4.906-4.266 3.98-1.126 11.299.527 15.73.527 1.71 0 3.036 4.055 4.258 2.859 4.834-4.727 5.948-11.873 11.352-16.641 2.485-2.192 8.473-.637 10.406-2.57 5.371-5.371-5.129-18.376 15.785-28.496 3.121-1.51 9.851 2.753 11.828 4.73.881.881 8.453-3.499 10.938-2.277 5.981 2.942 13.334-3.408 18.27-.117.443.295 3.25 1.578 3.488 1.285 3.361-4.132 2.671-10.119 7.332-13.488 3.69-2.668 14.565-1.744 16.676-3.855 4.707-4.707 15.09-7.06 18.449-4.848v235.559h-832.699v-254c28.711-9.198 23.36 8.384 29.801 14.824z" transform="translate(-40 -266)" fill="#E3B67F"/></svg>