<svg width="834" height="210" xmlns="http://www.w3.org/2000/svg"><path d="M27.574 11.547c4.272 3.642 4.672 9.991 4.672 15.18 0 .586-.263 5.891 0 5.957 32.047 8.012 12.11 11.274 20.281 19.445 1.08 1.08 4.547-.714 5.559.234 2.475 2.321 2.908 5.943 5.082 8.117 1.957 1.957 6.386-.303 8.754 2.043 1.693 1.677 3.538 10.824 3.961 11.035 5.357 2.679 22.131-8.38 32.934-4.379 1.034.383 17.671 12.163 17.797 12.438 1.732 3.787-2.59 10.676 1.184 12.438 1.306.609 6.619-2.291 9.047-1.809 7.373 1.465 8.765 7.464 12.887 11.328 2.086 1.956 10.654-2.994 15.434 1.695 3.809 3.737 4.402 10.144 7.746 13.488.431.431 4.264-1.763 5.734-1.52 4.228.701 4.128 1.89 6.27 4.031 1.55 1.55 9.254-2.658 11.766-.41 2.943 2.634 4.111 5.432 6.328 7.648.022.022 9.417-6.841 16.793-8.406 8.328-1.768 10.552 2.071 15.137 6.656.12.12 14.922-3.879 19.688-2.688 1.979.495 3.24 5.203 4.672 6.539 3.418 3.19 23.279-6.667 22.703 3.391l46 2 1-5c-2.134-18.999 25.741-12.77 28.352-13.543 4.563-1.351 8.298-4.125 13.125-5.078 1.683-.332 5.212 2.479 5.973 2.102 8.697-4.312 9.168-16.648 21.051-19.27 3.643-.804 5.911 3.152 8.574 2.395 8.325-2.367 16.119-8.82 25.008-8.82 1.885 0 3.577 4.138 4.91 2.805 4.664-4.664 7.606-10.935 15.551-11.328 17.21-.852 15.43 13.326 25.422 18.16 3.411 1.65 8.675-2.902 12.301-1.109 2.569 1.27 6.904 7.215 9.164 6.656 4.077-1.008 9.391-4.319 13.777-2.688 8.479 3.153 9.501 12.635 14.898 17.695 3.975 3.727 11.944-8.513 29.625 9.168.668.668 10.536-.418 11.531-.527 2.955-.326 7.554 2.153 9.398 1.695 1.566-.388 12.815-8.553 14.133-9.871 2.093-2.093 5.419 3.621 7.391 3.621 11.541 0 18.81-4.027 22.824 8.992l32.992-5.055 6-13-2-4c-6.825-16.584 15.777-17.332 17.016-18.543 3.412-3.338 4.927-7.762 9.52-10.57.532-.325 5.093-.668 5.203-.875 6.724-12.607-6.436-14.367 16.852-25.867 1.872-.925 8.595-3.568 11.293-2.219.747.373 3.413 2.975 4.02 2.57 2.891-1.927 5.103-3.857 8.871-4.324 2.258-.28 5.315 3.222 6.68 1.402 9.879-13.172 2.541-19.804 24.539-24.992 8.43-1.988 9.61 2.774 14.426 7.59.719.719 7.496-.934 8.93-.934 1.996 0 3.762 3.993 5.32 2.746 5.677-4.542 6.073-14.462 11.293-19.621 8.223-8.127 15.754-2.048 16.141-2.277.764-.452 6.186-8.106 13.535-12.086v207h-832.637v-205c5.461-9.907 21.735 2.57 27.574 7.547z" fill="#DCC086"/></svg>