<svg width="835" height="159" xmlns="http://www.w3.org/2000/svg"><path d="M39.688 410.941c28.314-12.355 30.903 8.928 39.438 13.195 3.58 1.79 6.735-1.158 10.289 1.926 2.197 1.907 1.158 4.626 3.016 6.484 4.714 4.714 18.275 1.461 20.574 2.219 4.279 1.411 4.24 9.597 8.633 11.793 2.99 1.495 8.206-2.181 11.059 0 3.577 2.735 7.641 9.868 7.863 10.395.441 1.047 9.461-1.662 10.348-1.75 15.156-1.496 18.409 2.714 27.141 11.445.1.1 7.603 2.703 10.699 5.605 1.282 1.202 8.106-5.254 9.168-6.074 4.48-3.459 12.008-2.02 16.789-1.344 6.206.878 10.239 9.716 14.016 13.492.466.466 5.43-3.107 7.152-2.863 1.906.27 3.536 3.011 5.203 2.805 5.761-.714 11.941-11.527 17.504-14.309 9.439-4.719 16.233 4.57 22.645 2.98 3.024-.75 6.137-6.27 8.16-8.293 2.212-2.212 7.042 1.392 9.344.816 1.844-.461 3.923-3.327 5.793-4.262 2.342-1.171 5.162 2.09 7.156 1.109 9.781-4.81 10.346-15.369 25.543-17.52 8.294-1.174 15.277 2.063 20.223 7.008 1.682 1.682 9.614-1.835 12.77.059 4.005 2.403 2.18 6.969 4.789 9.578 1.112 1.112 6.508.635 8.398 1.574 2.34 1.162 7.179 6.657 9.457 6.309 6.127-.938 7.087-5.551 10.82-9.051 1.546-1.449 4.636.521 8.16-.234.164-.035 4.469-12.521 10.469-16.934 3.68-2.707 14.781.327 16.438-1.227 9.244-8.667 17.994-17.339 32.812-15.242 2.178.308 3.19 2.966 4.852 3.797 2.871 1.436 7.617-1.199 10.582.234 4.931 2.384 8.539 9.82 8.574 9.809 6.658-2.219 21.319-1.025 26.902 1.984 6.377 3.437 6.717 9.096 10.82 13.199 1.023 1.023 7.16 1.322 8.988 2.395 4.518 2.65 9.029 9.312 13.246 10.977 5.401 2.132 11.64.153 17.266 1.461 5.374 1.25 4.075 6.464 9.992 5.488 4.472-.737 7.961-5.086 12.473-6.309 3.258-.883 8.515 4.119 8.695 4.031 3.168-1.533 6.536-8.591 11.172-10.512 8.739-3.621 16.423 2.453 20.695 1.402 5.591-1.375 7.718-10.149 13.363-12.031 2.577-.859 10.18 2.09 11.176 1.344 1.692-1.269 1.786-3.471 3.191-4.789 1.996-1.871 13.98-.811 17.504-1.809 11.935-3.378 11.374-19.504 26.605-19.504 3.306 0 7.006 5.666 9.344 3.328 4.567-4.567 6.655-13.011 12.297-16.352 3.839-2.273 11.188 3.63 14.547 1.285 8.133-5.678 11.237-17.426 21.465-20.32 10.852-3.071 21.943 1.157 29.68 8.41 1.605 1.504 6.55-1.437 8.691-.527 2.442 1.037 3.83 4.775 6.031 5.84.495.24 4.619-5.018 5.441-5.84 3.178-3.178 5.43-1.016 8.871-2.57.284-.128.896-5.228 1.063-5.723 1.973-5.852 7.7-10.86 11.473-15.707 8.395-10.786 14.975-3.887 24.715-4.961 5.117-.564 8.253-7.585 11.836-2.453l-.105 156.789h-833l-.313-112.059z" transform="translate(-39 -364)" fill="#D1D090"/></svg>