<svg width="834" height="292" xmlns="http://www.w3.org/2000/svg"><path d="M2.336 330.656c5.896-5.345 12.161-.947 16.555 4.027 5.207 5.894 4.958 17.864 9.402 22.309 1.205 1.205 7.643-1.369 9.52-.352 5.33 2.89 6.799 8.907 9.398 13.781.254.475 4.556-1.185 5.266-1.285 4.09-.579 7.288.448 10.879 2.395 5.996 3.251 3.328 8.969 6.445 12.086 1.238 1.238 12.146-.072 14.898.992 6.118 2.365 6.139 10.46 10.113 12.383 8.391 4.06 25.382-5.684 34.055-6.074 15.974-.72 45.175 5.137 65.336 5.137 42.964 0 85.245-5.234 128.074-6.422 51.704-1.434 103.705 1.441 155.207 5.781 11.631.98 21.823 6.689 33.352 7.418 24.986 1.58 50.176-2.733 75.09-.059 21.792 2.339 42.874 9.49 64.922 10.219 22.001.727 43.194-4.207 64.984-4.207 9.009 0 47.245-5.408 50.492-2.16 2.522 2.522 7.866 4.658 10.469 2.219 3.394-3.182 3.647-8.415 9.281-9.344 16.337-2.693 20.974 7.418 28.973 7.418.258 0 3.048-7.318 3.668-8.41 3.227-5.69 11.975-11.929 14.422-14.656l-.137 236.148h-833v-280l2.336-9.344z" transform="translate(0 -328)" fill="#93C0D2"/></svg>