<svg width="833" height="231" xmlns="http://www.w3.org/2000/svg"><path d="M.059 1.102c22.088-3.404 24.258 10.699 34.871 21.313 1.915 1.915 5.038-2.453 7.746-2.453 12.064 0 10 6.922 15.078 9.461 3.193 1.597 7.071-2.803 10.762-.992 6.565 3.22 7.975 8.233 12.18 12.438 2.348 2.348 8.85-.044 11.469 4.32.977 1.628.307 4.959 1.598 6.25.89.89 21.277-2.74 27.434-.352 4.821 1.87 6.886 6.057 10.23 9.402 1.47 1.47 9.903-3.73 13.008-2.805 3.014.898 5.045 6.594 8.102 8.293 6.763 3.759 20.146 5.798 27.848 7.531 6.629 1.492 13.478-.89 20.047.176 5.65.917 10.159 4.294 16.141 4.379 6.316.089 12.371-2.93 18.625-2.219 6.239.71 11.131 6.89 17.266 8.469 12.984 3.342 31.337 2.046 44.82 2.512 38.601 1.334 76.959-2.085 115.238-4.613 9.705-.641 17.947-7.07 27.496-7.535 7.858-.383 15.047 5.313 22.883 6.309 14.872 1.889 33.99-.077 49.074-1.227 30.729-2.342 55.705-9.785 87.332-9.402 37.78.457 75.113 7.293 112.934 6.016 14.87-.502 28.295-5.278 42.395-7.184 4.85-.655 21.753 3.014 25.484-.469 4.052-3.782 4.187-11.513 8.574-15.238 13.178-11.189 9.766 4.887 21.996-15.359 5.831-9.654 13.384-4.935 17.266-8.816 2.598-2.598 5.047-4.305 5.047-4.305v206h-833l.059-229.898z" fill="#86BBE0"/></svg>