<svg width="834" height="180" xmlns="https://www.w3.org/2000/svg"><path d="M.828 1.222s17.171-2.818 23.366 2.375c2.199 1.843 4.706 4.373 8.064 7.732 2.636 2.636 10.733-1.017 15.137 3.387.932.932 15.595-7.83 19.984-5.957 10.141 4.328 3.912 20.026 9.637 25.75 4.622 4.622 78.115-2.601 83.195-3.035 39.439-3.369 82.166-4.344 121.445 1.051 24.435 3.356 46.922 12.903 71.133 16.758 31.134 4.957 62.639 11.659 94.012 14.484 23.885 2.151 47.986.71 71.902 2.742 31.113 2.644 60.81 8.059 92.355 8.059 27.625 0 70.946 1.029 97.027-.406 18.683-1.028 38.1-8.352 55.938-8.352 2.855 0 12.773-17.639 22.941-20.379 2.182-.588 21.342 1.493 23.652 2.625 2.863 1.403 3.965 9.203 6.383 7.125 2.804-2.41 17-15.18 17-9.75v134.57h-833.172v-178.778z" fill="#7CADD5"/></svg>