<svg width="833" height="134" xmlns="http://www.w3.org/2000/svg"><path d="M0 491c10.254-9.468 21.908-2.717 30.301 5.676.629.629 7.695-4.028 9.461-4.203 5.218-.518 8.542 3.722 11.887 7.066.718.718 5.508-2.131 6.504-2.57 4.905-2.164 9.629-2.811 14.84-3.68 19.189-3.198 41.022-1.227 60.313-1.227 15.173 0 30.656 2.843 45.883 3.387 46.327 1.653 92.974 1.825 139.008 8.117 39.887 5.452 79.024 14.891 119.023 19.797 31.982 3.922 64.482 1.963 96.559 5.547 40.342 4.507 79.963 13.485 120.855 14.949 24.782.887 49.71 3.84 74.383 4.262 1.434.024 14.888 2.292 15.434 1.695.514-.563 18.239-24.443 18.974-23.997.823.499 1.994.943 2.487.579 5.264-3.883 6.148-13.815 14.902-10.336 15.051 5.98 9.326 9.465 16.672 16.352 1.269 1.19 16.574-6.223 29.98 7.184 2.867 2.867 5.535-.598 5.535 1.402v79h-833v-129z" transform="translate(0 -486)" fill="#7395BE"/></svg>