<svg width="45" height="27" xmlns="http://www.w3.org/2000/svg"><path d="M60.5 42.5h9v4.5h-9v-4.5zm2.25 6.75h4.5v4.5h-4.5v-4.5zm2.25 6.75h4.5v4.5h-4.5v-4.5zm-24.75 0h22.5v4.5h-22.5v-4.5zm-6.75 0h4.5v4.5h-4.5v-4.5zm2.25-6.75h4.5v4.5h-4.5v-4.5zm-2.25-6.75h4.5v4.5h-4.5v-4.5zm9 6.75h4.5v4.5h-4.5v-4.5zm-2.25-6.75h4.5v4.5h-4.5v-4.5zm9 6.75h4.5v4.5h-4.5v-4.5zm-2.25-6.75h4.5v4.5h-4.5v-4.5zm9 6.75h4.5v4.5h-4.5v-4.5zm-2.25-6.75h4.5v4.5h-4.5v-4.5zm17.1-4.5h-38.7c-1.732 0-3.15 1.417-3.15 3.15v20.7c0 1.733 1.418 3.15 3.15 3.15h38.7c1.733 0 3.15-1.417 3.15-3.15v-20.7c0-1.733-1.418-3.15-3.15-3.15z" transform="translate(-204 -221) translate(175 183)" fill="#586A90"/></svg>
