<svg width="833" height="187" xmlns="http://www.w3.org/2000/svg"><path d="M412 187s-105-13-105-13.51c-102.873-42.27-307-124.49-307-124.49v-49h36s203.65 114.547 308 173.49c0 .51 24 .51 24 0-66.645-59.02-198-173.49-198-173.49h87s86.714 115.115 131 173.49c0 .51 12 .51 12 0-22.302-57.124-68-173.49-68-173.49h60s17.138 116.688 25 173.49c0 .51 6 .51 6 0 6.885-56.725 21.553-173.49 21.553-173.49h55.447s-44.132 116.827-64.196 173.49c.196.51 13.196.51 13.196 0 38.458-57.205 116-173.49 116-173.49h73s-114.081 115.738-171 173.49c0 .51 15 .51 14.778 0 81.741-57.83 245.222-173.49 245.222-173.49h107v16l-319 157.49-103 13.51z" fill="#fff" opacity=".07"/></svg>