<svg width="833" height="109" xmlns="https://www.w3.org/2000/svg"><path d="M0 37c28.314-9.551 32.59 6.19 41.125 9.489 3.58 1.384 6.735-.895 10.289 1.489 2.197 1.474 1.158 3.576 3.016 5.013 4.714 3.644 18.275 1.129 20.574 1.715 4.279 1.09 4.24 7.419 8.633 9.117 2.99 1.156 8.206-1.686 11.059 0 3.577 2.115 7.641 7.629 7.863 8.035.441.809 9.461-1.285 10.348-1.353 15.156-1.156 18.409 2.098 27.141 8.848.1.078 7.603 2.089 10.699 4.333 1.282.929 8.106-4.062 9.168-4.696 4.48-2.674 12.008-1.562 16.789-1.039 6.206.679 10.239 7.511 14.016 10.43.466.361 5.43-2.402 7.152-2.213 1.906.208 3.536 2.328 5.203 2.168 5.761-.552 11.941-8.911 17.504-11.061 9.439-3.648 16.233 3.533 22.645 2.304 3.024-.58 6.137-4.847 8.16-6.411 2.212-1.71 7.042 1.076 9.344.631 1.844-.356 3.923-2.572 5.793-3.295 2.342-.905 5.162 1.616 7.156.858 9.781-3.719 10.346-11.881 25.543-13.543 8.294-.907 15.277 1.595 20.223 5.417 1.682 1.3 9.614-1.418 12.77.045 4.005 1.858 2.18 5.387 4.789 7.404 1.112.859 6.508.491 8.398 1.217 2.34.899 7.179 5.146 9.457 4.877 6.127-.725 7.087-4.291 10.82-6.997 1.546-1.12 4.636.403 8.16-.181.164-.027 4.469-9.679 10.469-13.091 3.68-2.093 14.781.252 16.438-.948 9.244-6.7 17.994-13.404 32.813-11.783 2.178.238 3.19 2.293 4.852 2.935 2.871 1.11 7.617-.927 10.582.181 4.931 1.843 8.539 7.592 8.574 7.583 6.658-1.716 21.319-.792 26.902 1.534 6.377 2.657 6.717 7.032 10.82 10.204 1.023.791 7.16 1.022 8.988 1.851 4.518 2.049 9.029 7.198 13.246 8.485 5.401 1.648 11.64.118 17.266 1.129 5.374.966 4.075 4.997 9.992 4.243 4.472-.57 7.961-3.931 12.473-4.877 3.258-.683 8.515 3.184 8.695 3.116 3.168-1.185 6.536-6.641 11.172-8.126 8.739-2.799 16.423 1.896 20.695 1.084 5.591-1.063 7.718-7.846 13.363-9.301 2.577-.664 10.18 1.616 11.176 1.039 1.692-.981 1.786-2.683 3.191-3.702 1.996-1.447 13.98-.627 17.504-1.398 11.935-2.611 11.374-15.077 26.605-15.077 3.306 0 7.006 4.38 9.344 2.573 4.567-3.53 6.655-10.058 12.297-12.641 3.839-1.757 11.188 2.806 14.547.993 8.133-4.389 11.237-13.471 21.465-15.709 10.852-2.374 21.943.895 29.68 6.501 1.605 1.163 6.55-1.111 8.691-.408 2.442.801 3.83 3.691 6.031 4.514.495.185 4.619-3.879 5.441-4.514 3.178-2.457 5.43-.786 8.871-1.987.284-.099.896-4.041 1.063-4.424 1.973-4.524 7.7-8.395 11.473-12.142 8.395-8.338 14.975-3.005 24.715-3.835 5.117-.436 6.148-5.573 9.73-1.606v107h-833v-72z" fill="#7E7366"/></svg>