<svg width="833" height="111" xmlns="http://www.w3.org/2000/svg"><path d="M5.52 61.32c5.48 1.68 16.351-10.407 21.348-5.723 2.143 2.009 2.405 6.341 4.492 8.289.368.344 6.252-3.307 8.516-.523 2.068 2.543 2.604 7.762 4.672 9.691 1.538 1.436 11.689.006 15.313 2.57 4.405 3.117 2.274 9.743 5.203 12.672 1.752 1.752 14.747-16.758 28.145-16.758 4.166 0 5.345 6.943 7.57 9.168.333.333 3.599-2.692 4.375-2.98 3.213-1.195 3.364 3.568 5.438 2.688 5.853-2.485 10.233-8.336 16.734-9.637 9.252-1.85 5.933 6.335 10.109 10.512.617.617 4.803-1.578 5.738-1.809 2.179-.536 5.071 2.651 6.383 2.219 5.252-1.731 5.815-7.958 12.656-8.41 6.741-.445 4.764 6.947 7.746 9.93.785.785 5.161-1.715 7.27 0 3.113 2.532 4.946 6.598 7.629 9.281.306.306 6.597-1.477 7.922-1.223 12.241 2.351 8.684 10.415 30.453 8.758 3.966-.302 7.32-.347 10.82 1.867 1.183.748 2.315 4.224 2.957 2.98 11.387-22.039 33.607-9.408 33.996-9.695 7.875-5.81 6.461-19.842 18.094-21.488 5.6-.792 9.466 2.341 13.777 4.496 1.443.722 4.204-2.162 5.973-2.453 2.339-.386 6.499 3.228 6.918 3.094 2.652-.852 3.616-4.095 6.859-3.094 3.832 1.183 4.103 5.197 6.383 7.477.08.08 10.705-5.974 13.363-5.316 2.729.676 10.379 9.831 11.059 9.695 5.825-1.165 10.801-14.358 18.566-16.352 1.892-.486 11.587-2.566 12.891-1.344 1.869 1.752 2.74 8.003 4.551 6.191 8.209-8.209 18.425-20.715 29.445-9.695.672.672 4.106-3.178 5.914-2.625 1.073.328 4.051 3.584 5.203 2.859 4.161-2.616 14.088-3.372 14.426-3.621 6.44-4.751 8.342-13.012 17.574-13.012 3.58 0 8.568 6.113 9.328 6.531 2.672 1.469 8.494-3.142 12.949-3.387 6.541-.359 9.522-6.474 17.68-6.773 8.878-.326 7.277 2.991 11.828 7.238 2.579 2.407 7.424-2.793 10.523-1.109 5.049 2.742 8.539 9.238 13.305 11.621 2.749 1.375 6.412-4.637 9.875-3.793 6.432 1.568 9.269 8.834 14.898 10.219 4.877 1.199 7.878-8.521 22.586 6.188.478.478 3.835-5.146 4.258-5.781.82-1.23 6.574-1.626 8.102-1.691 2.956-.127 5.439-.207 8.039.641.451.147 3.348 2.772 3.371 2.746 10.682-11.918 14.436-5.822 23.887-10.395 2.769-1.34.372-13.423 2.012-15.883 5.242-7.862 11.519-2.524 16.32 2.277.678.678 4.813-2.109 5.617-2.512 2.185-1.092 7.172-.234 9.281-.234 3.951 0 2.865 4.171 5.5 5.488 3.377 1.688 8.473-.723 10.645 3.621.17.34 4.584-6.521 11.586-7.59 2.671-.408 5.571-.894 8.281-.527.847.114 2.363 1.847 2.363.992 0-7.869.177-17.859 9.344-19.676 3.206-.636 7.899-.021 10.938.992.283.094 3.098 2.009 3.313 1.809 2.911-2.729 7.514-4.975 11.648-2.453 2.132 1.301 10.684 13.709 14.426 11.215 3.75-2.5 1.261-9.648 6.801-12.555 2.992-1.57 11.422-1.39 12.535-4.09 9.225-22.383 15.086-15.297 32.34-15.297 5.667 0 8.189 9.331 8.574 8.875 1.86-2.202 3.182-4.553 5.441-6.484 3.679-3.144 13.727 1.281 13.406-10.223v111h-833v-46c2-5 5.52-3.68 5.52-3.68z" fill="#524E5A"/></svg>