<svg width="833" height="175" xmlns="https://www.w3.org/2000/svg"><path d="M.008 4.736c5.124 1.591 13.644-1.458 19.145.421 11.066 3.78 4.344 14.004 9.047 18.877 1.654 1.714 9.135-.749 11.527.364 2.935 1.366 3.897 6.216 6.031 7.322 2.204 1.142 9.38-4.414 13.066-3.873 10.043 1.472 3.601 8.095 6.918 11.317 1.411 1.37 4.753.92 6.504 2.902 6.708 7.595 6.98 18.358 6.98 28.134 0 1.07-1.033 3.21 0 3.21 2.74 0 6.653-4.207 9.813-4.901 8.38-1.843 7.284-1.199 12.004 3.691.538.557 18.075-.788 21.168.421 3.497 1.367 6.115 7.157 7.035 8.046 2.556 2.472 14.684-4.047 20.047-.603 3.154 2.025 3.988 5.963 6.383 8.289 1.889 1.835 7.346-1.997 10.348 1.574 5.43 6.461 6.27 17.515 6.27 16.396 0-4.782 13.84 2.006 18.27 6.29.308.298 2.39-1.347 2.66-1.51 6.315-3.794 12.925-7.135 19.867-9.499 12.283-4.183 18.893 1.803 26.727 9.92 1.89 1.958 4.033-4.986 6.68-4.598 12.91 1.893 7.591 13.706 11.59 17.849.949.983 12.136-2.462 14.488-2.117 2.144.314 3.889 3.153 5.262 4.659 3.964 4.648 11.321-1.21 19.215-1.21 3.21 0 6.596-.281 9.758.425 1.429.319 2.986 2.884 4.02 1.813 4.469-4.63 8.747-9.288 15.078-11.98 3.596-1.53 20.939-.483 21.582-1.149 6.499-6.734 11.032-10.082 20.695-12.644 4.636-1.229 9.535-4.188 14.309-4.476 1.982-.12 4.272 3.329 5.676 1.874 4.004-4.149 2.731-12.766 10.762-13.251.913-.055 13.797 4.202 14.012 4.481 1.188 1.54 4.729 12.093 5.441 12.462.137.071 13.391-6.187 16.91-5.929 7.881.578 11.177 8.415 15.609 13.008 2.347 2.432 6.733-.186 9.934.724 4.112 1.169 6.27 4.332 8.75 6.901 1.205 1.249 16.119.33 21.289 5.687.444.46 11.274-6.15 16.73-6.537 4.337-.307 9.504.884 13.543 2.542 1.351.555 2.578 3.607 3.605 2.542 6.543-6.78 11.251-12.634 21.168-15.247 1.94-.511 5.646-1.335 7.625-.486.929.399 1.656 2.676 2.367 1.939 1.783-1.847-.89-4.702 4.375-6.172.963-.269 5.189.505 5.617.061 3.948-4.091-.379-16.061 7.688-18.817 7.583-2.59 12.937.893 17.559 5.383.027.026 6.39-3.764 8.34-2.36 5.114 3.685 5.321 7.512 7.684 12.102.284.551 6.201-.406 7.156.121 4.114 2.272 3.481 6.918 6.148 9.681.877.909 6.123-6.807 6.563-7.504 1.402-2.224 2.631-5.362 5.266-6.112 4.656-1.325 8.786 1.271 12.414 1.271 1.046 0 5.857-8.538 7.273-9.981 2.551-2.6 8.042-4.106 11.352-4.78 1.958-.399 16.729 2.944 17.148 2.538 3.142-3.038 4.306-9.452 7.035-13.187 7.941-10.865 14.865-.911 23.652-.911.402 0 4.262-6.458 6.031-7.925 2.023-1.677 7.385-1.431 8.633-2.724 3.411-3.534 1.772-15.668 9.461-16.275 22.599-1.783 12.52 6.551 19.629 8.836 3.687 1.185 7.91 10.231 9.637 6.654 1.231-2.551 5.35-5.756 8.043-6.533 2.891-.834 10.971 2.423 11.473 1.51 5.432-9.892 8.938-18.149 20.277-18.149.798 0 0-1.654 0-2.481 0-10.696-9.192-24.592 3.137-30.918 11.175-5.735 6.254 6.889 10.523 11.313.76.788 7.357-4.016 8.633-4.234 6.493-1.109 6.34 0 6.34 4.234v161.554h-832.992v-170.264z" fill="#242536"/></svg>
