<svg width="833" height="108" xmlns="https://www.w3.org/2000/svg"><path d="M833 95v-69c-1.427-10.238-7.753-13.448-15.25-2.344-2.321 3.438-.848 13.02-2.66 14.832-.883.883-6.608 1.451-8.457 2.801-4.584 3.346-8.392 10.865-8.453 10.805-1.624-1.624-2.209-4.254-4.789-5.141-4.397-1.51-25.515-.792-29.508 2.16-2.404 1.777-5.216 8.374-7.625 9.168-8.993 2.965.259-6.403-21.938 7.242-.666.409-1.807-2.619-2.129-3.152-1.308-2.165-4.487-3.868-6.387-5.488-1.449-1.236-22.854-6.54-24.773-6.367-10.109.912-11.525 7.609-15.137 14.832-.197.395-10.819 1.76-11.707 2.043-6.155 1.964-10.538 7.178-16.203 9.285-1.395.519-5.001-5.042-7.742-4.438-1.854.409-15.547 4.126-16.086 3.621-1.305-1.223-4.371-4.856-6.383-5.141-8.225-1.164-17.816 7.984-22.469 13.723-.445.549-2.915-3.615-4.438-4.027-3.325-.901-7.366 1.256-10.523 1.926-4.888 1.038-5.62-7.134-9.875-9.227-3.516-1.729-20.652-.812-23.648 2.105-2.104 2.048-2.96 7.429-5.383 8.641-8.041 4.021-32.532-3.921-36.438 11.141h-237.219c-1.139-1.143-6.36-2.403-7.141-3.184-3.34-3.34-37.167-15.332-41.625-16.293-1.945-.419-21.462.054-23.648.816-2.299.802-3.043-2.279-5.383-2.859-1.932-.479-9.666 1.561-10.703.523-4.017-4.017-5.807-9.922-12.18-11.328-2.147-.474-10.173 2.459-10.879 1.754-6.315-6.315.376-12.055-10.879-17.109-11.051-4.963-20.182 11.281-28.973 12.73-1.696.279-8.486-5.89-14.074-5.258-1.57.178-11.105 3.009-12.535 1.578-1.838-1.838-.302-8.404-2.188-11.094-2.109-3.008-8.091-4.733-11.41-5.84-.503-.168-.036-5.904-.355-6.543-2.033-4.065-7.601-9.285-12.418-9.285-7.115 0-13.952.515-20.695 2.746-2.471.818-7.566 4.528-7.566 1.926 0-21.756-8.618-11.423-13.953-16.758-.722-.722-.344-4.127-1.066-5.371-6.474-11.145-20.568-3.265-29.672-2.102l-.435 90.949-.002 13h833v-13zm-517 0c3.373-8.509 32.421-8.312 33.781-9.672 4.182-4.182 6.685-9.668 13.305-10.98 2.363-.468 10.846 2.823 11.293 2.57 5.93-3.357 6.83-5.583 14.484-5.898 4.723-.195 8.528 5.03 9.992 4.789 6.707-1.106 10.573-7.073 18.273-5.547 6.761 1.34 15.829 12.522 20.691 11.738 5.841-.941 5.059-.007 7.984 2.918.902.902 5.249-1.495 6.207-1.809 3.585-1.173 8.545-.643 12.242-.469 4.336.205 20.746 7.359 27.746 12.359h-176z" fill="#1D1D2E"/></svg>
