<svg width="834" height="137" xmlns="http://www.w3.org/2000/svg"><path d="M0 84c5.461-7.218 23.735-.636 29.574 2.99 4.272 2.653 4.672 3.279 4.672 7.059 0 .427-.263 4.292 0 4.34 32.047 5.837 12.11 8.213 20.281 14.167 1.08.787 4.547-.52 5.559.171 2.475 1.691 2.908 4.33 5.082 5.914 1.957 1.426 6.386-.221 8.754 1.488 1.693 1.222 3.538 7.886 3.961 8.04 5.357 1.951 22.131-12.105 32.934-9.19 1.034.279 17.671 8.861 17.797 9.061 1.732 2.759.104-1.923 2.387-3.096s5.416-2.511 7.844-2.16c7.373 1.067 8.765 5.438 12.887 8.253 2.086 1.425 10.654-2.181 15.434 1.235 3.809 2.722 4.402 7.39 7.746 9.827.431.314 4.264-1.285 5.734-1.107 4.228.51 4.128 1.377 6.27 2.937 1.55 1.13 9.254-1.937 11.766-.299 2.943 1.919 4.111 3.957 6.328 5.572.022.016 9.417-4.984 16.793-6.124 8.328-1.288 10.552 1.509 15.137 4.849.12.087 14.922-2.826 19.688-1.958 1.979.36 3.24 3.791 4.672 4.764 3.418 2.324 23.279-4.857 22.703 2.47l46 1.457 1-3.643c-2.134-13.841 25.741-9.303 28.352-9.867 4.563-.984 8.298-3.006 13.125-3.7 1.683-.242 5.212 1.806 5.973 1.531 8.697-3.142 9.168-12.129 21.051-14.039 3.643-.585 5.911 2.296 8.574 1.745 8.325-1.725 16.119-6.426 25.008-6.426 1.885 0 3.577 3.014 4.91 2.043 4.664-3.398 7.606-7.966 15.551-8.253 17.21-.621 15.43 9.708 25.422 13.23 3.411 1.202 8.675-2.114 12.301-.808 2.569.925 6.904 5.256 9.164 4.849 4.077-.734 9.391-3.146 13.777-1.958 8.479 2.297 9.501 9.205 14.898 12.892 3.975 2.715 11.944-6.202 29.625 6.679.668.486 10.536-.304 11.531-.384 2.955-.237 7.554 1.568 9.398 1.235 1.566-.283 12.815-6.231 14.133-7.191 2.093-1.525 5.419 2.638 7.391 2.638 11.541 0 18.81-2.934 22.824 6.551l32.992-3.683 6-9.471-2-2.914c-6.825-12.082 15.777-12.627 17.016-13.509 3.412-2.432 4.927-5.655 9.52-7.701.532-.237 5.093-.487 5.203-.637 6.724-9.185-6.436-10.467 16.852-18.845 1.872-.674 8.595-2.599 11.293-1.616.747.272 3.413 2.167 4.02 1.873 2.891-1.404 5.103-2.81 8.871-3.15 2.258-.204 5.315 2.348 6.68 1.022 9.879-9.596 2.541-14.428 24.539-18.208 8.43-1.448 9.61 2.021 14.426 5.529.719.524 7.496-.68 8.93-.68 1.996 0 3.762 2.909 5.32 2.001 5.677-3.309 6.073-10.536 11.293-14.295 8.223-5.921 15.754-1.492 16.141-1.659.764-.33 4.549-5.94 11.898-8.84v137h-833v-110z" transform="translate(0 -57)" fill="#B19F73" opacity=".6"/></svg>